<?xml version="1.0" standalone="no"?>
<!DOCTYPE svg PUBLIC "-//W3C//DTD SVG 20010904//EN"
 "http://www.w3.org/TR/2001/REC-SVG-20010904/DTD/svg10.dtd">
<svg version="1.0" xmlns="http://www.w3.org/2000/svg"
 width="179.000000pt" height="179.000000pt" viewBox="0 0 179.000000 179.000000"
 preserveAspectRatio="xMidYMid meet">
<metadata>
Created by potrace 1.14, written by Peter Selinger 2001-2017
</metadata>
<g transform="translate(0.000000,179.000000) scale(0.100000,-0.100000)"
fill="#000000" stroke="none">
<path d="M972 1665 c-111 -31 -210 -116 -260 -223 -23 -49 -27 -70 -27 -147 0
-103 18 -161 71 -231 19 -24 34 -49 34 -54 0 -6 -56 -10 -145 -10 -94 0 -145
4 -145 10 0 6 9 29 21 52 48 94 32 208 -42 291 -130 149 -348 122 -444 -54
-41 -75 -42 -162 -2 -236 28 -55 34 -83 17 -83 -6 0 -19 -15 -30 -32 -19 -31
-20 -52 -20 -386 0 -381 1 -391 54 -426 23 -14 84 -16 616 -16 532 0 593 2
616 16 41 27 54 65 54 154 0 57 4 80 13 80 6 0 95 -32 196 -70 102 -39 188
-70 193 -70 4 0 17 9 28 20 19 19 20 33 20 310 0 277 -1 291 -20 310 -11 11
-24 20 -28 20 -5 0 -91 -31 -193 -70 -101 -38 -189 -70 -196 -70 -8 0 -13 29
-15 88 -3 48 -10 101 -18 118 -13 29 -11 32 31 85 115 140 129 308 37 451 -89
141 -267 215 -416 173z"/>
</g>
</svg>
